<svg width="800" height="600" viewBox="0 0 800 600" fill="none" xmlns="http://www.w3.org/2000/svg">
  <rect width="800" height="600" fill="#f1f5f9"/>
  <path d="M400 150C323.726 150 261.905 211.822 261.905 288.095C261.905 364.369 323.726 426.19 400 426.19C476.274 426.19 538.095 364.369 538.095 288.095C538.095 211.822 476.274 150 400 150ZM400 388.095C344.762 388.095 300 343.333 300 288.095C300 232.857 344.762 188.095 400 188.095C455.238 188.095 500 232.857 500 288.095C500 343.333 455.238 388.095 400 388.095Z" fill="#cbd5e1"/>
  <path d="M400 450C278.497 450 180 471.716 180 498.095V550H620V498.095C620 471.716 521.503 450 400 450Z" fill="#cbd5e1"/>
</svg> 