<?xml version="1.0" encoding="utf-8"?>
<!-- Generator: Adobe Illustrator 23.0.3, SVG Export Plug-In . SVG Version: 6.00 Build 0)  -->
<svg version="1.1" id="Layer_1" xmlns="http://www.w3.org/2000/svg" xmlns:xlink="http://www.w3.org/1999/xlink" x="0px" y="0px"
	 viewBox="0 0 1723.9 1594.2" style="enable-background:new 0 0 1723.9 1594.2;" xml:space="preserve">
<style type="text/css">
	.st0{fill:url(#SVGID_1_);}
</style>
<linearGradient id="SVGID_1_" gradientUnits="userSpaceOnUse" x1="329.8625" y1="1326.4135" x2="1642.3436" y2="208.7274">
	<stop  offset="0" style="stop-color:#7A55FF"/>
	<stop  offset="1" style="stop-color:#9242B3"/>
</linearGradient>
<path class="st0" d="M1378.8,1301.7c-27.8-12.8-47.1-40.9-47.1-73.5c0-44.7,36.2-80.9,80.9-80.9c44.7,0,80.9,36.2,80.9,80.9
	c0,32.6-19.3,60.7-47.1,73.4v292.5c69.6-202.5,268.4-744.9,277.6-914.5c-54.8,134.3-190,200.5-361.5,203.7
	c-13.1,26.9-40.7,45.4-72.6,45.4c-44.7,0-80.9-36.2-80.9-80.9s36.2-80.9,80.9-80.9c33.3,0,61.8,20.1,74.2,48.8
	c176.8-4.7,393-150,336.1-379.6C1638,185.7,1301.6,27.7,968.6,0c119.7,68.1,200.6,196.8,200.6,344.1v4.7
	c29.2,12.2,49.8,40.9,49.8,74.6c0,44.7-36.2,80.9-80.9,80.9c-44.7,0-80.9-36.2-80.9-80.9c0-31.5,18.1-58.8,44.5-72.1v-7.2
	c0-181-147.4-319.5-328.2-328.2C442.5,0,0,249.8,0,601.2C0,723.3,51.7,836.9,140.5,932c-50.8-140-20.2-303.2,91.9-415.3l13.4-13.4
	c-1.2-5.4-1.8-11.1-1.8-16.9c0-44.7,36.2-80.9,80.9-80.9c44.7,0,80.9,36.2,80.9,80.9s-36.2,80.9-80.9,80.9
	c-13.8,0-26.8-3.5-38.1-9.6l-6.7,6.7c-128,128-128,336.2,0,464.1c0,0,57,50.4,72.5,60.5c135.7,87.5,320.8,117.7,512.8,117.7
	c58.4,0,115.5-4.1,170.7-11.8c-84.3-23.8-147.6-60.2-191.8-110.2c-56.3-63.5-82.5-147.4-82.5-263.8v-25.5
	c-26.5-13.3-44.7-40.6-44.7-72.2c0-44.7,36.2-80.9,80.9-80.9c44.7,0,80.9,36.2,80.9,80.9c0,33.6-20.5,62.3-49.6,74.6V821
	c0,45.1,3.9,86.8,14.5,124.3c26.9,62.5,69.2,119.4,127.7,152.9c61.2,35.1,155,41.8,205,60.9c56.3,21.5,181.3,377.8,202.3,435V1301.7
	z"/>
</svg>
